<?xml version="1.0" encoding="utf-8"?>
<!-- Generator: Adobe Illustrator 22.0.1, SVG Export Plug-In . SVG Version: 6.00 Build 0)  -->
<svg version="1.1" xmlns="http://www.w3.org/2000/svg" xmlns:xlink="http://www.w3.org/1999/xlink" x="0px" y="0px"
	 viewBox="0 0 232 68" style="enable-background:new 0 0 232 68;" xml:space="preserve">
<style type="text/css">
	.st0{display:none;}
	.st1{display:inline;fill:#F4692C;}
	.st2{display:inline;fill:none;stroke:#FFFFFF;stroke-width:9;stroke-linecap:round;stroke-linejoin:round;stroke-miterlimit:10;}
	.st3{display:inline;}
	.st4{fill:#424242;}
	.st5{font-family:'Kanit-Regular';}
	.st6{font-size:46.0979px;}
	.st7{font-family:'Kanit-Thin';}
	.st8{font-size:21.276px;}
	.st9{fill:#F4692C;stroke:#FFFFFF;stroke-miterlimit:10;}
	.st10{fill:#FFFFFF;}
</style>
<g id="Layer_1" class="st0">
	<path class="st1" d="M64.6,16.2C63,9.9,58.1,5,51.8,3.4C40,1.5,28,1.5,16.2,3.4C9.9,5,5,9.9,3.4,16.2C1.5,28,1.5,40,3.4,51.8
		C5,58.1,9.9,63,16.2,64.6c11.8,1.9,23.8,1.9,35.6,0C58.1,63,63,58.1,64.6,51.8C66.5,40,66.5,28,64.6,16.2z"/>
	<polyline class="st2" points="12.7,20.4 31,48.3 66,6.3 	"/>
	<text transform="matrix(1 0 0 1 70.6665 35.6514)" class="st3"><tspan x="0" y="0" class="st4 st5 st6">VPSlive</tspan><tspan x="0" y="25.5" class="st4 st7 st8">Daily Work Space.</tspan></text>
</g>
<g id="Layer_1_copy">
	<path class="st9" d="M64.6,16.2C63,9.9,58.1,5,51.8,3.4C40,1.5,28,1.5,16.2,3.4C9.9,5,5,9.9,3.4,16.2C1.5,28,1.5,40,3.4,51.8
		C5,58.1,9.9,63,16.2,64.6c11.8,1.9,23.8,1.9,35.6,0C58.1,63,63,58.1,64.6,51.8C66.5,40,66.5,28,64.6,16.2z"/>
	<g>
		<path class="st10" d="M64.4,15.4L34.5,51.2c-0.9,1-2.1,1.6-3.5,1.6h-0.3c-1.4-0.1-2.7-0.8-3.5-2L8.9,22.9
			c-1.4-2.1-0.8-4.9,1.3-6.2c2.1-1.4,4.9-0.8,6.2,1.3l15,22.9l5.3-6.3l-5.9-10c-1.3-2.1-0.5-4.9,1.6-6.2c2.1-1.3,4.9-0.5,6.2,1.6
			l4.2,7.2L59.3,7.4C61.6,9.5,63.4,12.2,64.4,15.4z"/>
	</g>
	<path class="st4" d="M83.4,34.1L73.9,9.2C73.3,7.7,74.5,6,76.2,6l0,0c1,0,1.9,0.6,2.3,1.6l6,16.5c0.8,2.1,3.8,2.1,4.5,0l6-16.5
		c0.3-1,1.3-1.6,2.3-1.6h0c1.7,0,2.9,1.7,2.3,3.3l-9.4,24.8C89.9,35,89,35.7,88,35.7h-2.3C84.7,35.7,83.8,35,83.4,34.1z"/>
	<path class="st4" d="M105.1,33.1V8.5c0-1.4,1.1-2.5,2.5-2.5h10.7c2.3,0,4.1,0.4,5.6,1.3c1.5,0.9,2.6,2,3.3,3.5
		c0.7,1.5,1.1,3.2,1.1,5.1c0,3-0.9,5.3-2.7,7.1c-1.8,1.8-4.3,2.7-7.4,2.7h-5.5c-1.4,0-2.5,1.1-2.5,2.5v5c0,1.4-1.1,2.5-2.5,2.5l0,0
		C106.3,35.7,105.1,34.5,105.1,33.1z M110.2,19.2c0,1.4,1.1,2.5,2.5,2.5h4.6c2,0,3.5-0.5,4.5-1.6c1-1,1.5-2.5,1.5-4.2
		c0-1.9-0.5-3.4-1.5-4.4c-1-1-2.4-1.6-4.4-1.6h-4.8c-1.4,0-2.5,1.1-2.5,2.5V19.2z"/>
	<path class="st4" d="M141.3,36.1c-3.5,0-6.3-0.4-8.6-1.2c-0.4-0.2-0.7-0.6-0.7-1v-2.1c0-0.7,0.7-1.3,1.4-1.1
		c0.9,0.3,1.9,0.5,2.8,0.7c1.5,0.3,3,0.5,4.5,0.5c2.4,0,4.1-0.3,5.3-0.8c1.2-0.6,1.8-1.7,1.8-3.3c0-1-0.2-1.8-0.7-2.4
		c-0.5-0.6-1.3-1.1-2.4-1.6c-1.1-0.4-2.7-0.9-4.7-1.4c-3.2-0.8-5.4-1.9-6.7-3.2c-1.3-1.3-1.9-3-1.9-5.3c0-2.6,1-4.7,2.9-6.1
		s4.7-2.2,8.5-2.2c1.7,0,3.3,0.1,4.9,0.4c1.1,0.2,2,0.4,2.8,0.6c0.5,0.1,0.8,0.6,0.8,1.1v2.1c0,0.7-0.7,1.3-1.4,1.1
		c-2-0.6-4.1-0.9-6.3-0.9c-2.2,0-3.9,0.3-5.2,0.9c-1.2,0.6-1.8,1.6-1.8,3.2c0,0.9,0.2,1.6,0.6,2.2c0.4,0.6,1.2,1,2.2,1.4
		c1.1,0.4,2.5,0.8,4.4,1.3c2.4,0.6,4.3,1.3,5.6,2.2c1.3,0.8,2.3,1.8,2.8,3c0.5,1.1,0.8,2.4,0.8,3.8c0,2.6-1,4.7-2.9,6.2
		C148.2,35.4,145.3,36.1,141.3,36.1z"/>
	<path class="st4" d="M163.4,36.1c-1.8,0-3.1-0.4-4.1-1.3c-0.9-0.9-1.4-2.3-1.4-4.4v-24c0-1.1,0.9-1.9,1.9-1.9h1.2
		c1.1,0,1.9,0.9,1.9,1.9V30c0,0.9,0.2,1.4,0.5,1.8c0.3,0.3,0.8,0.5,1.4,0.5c0,0,0.1,0,0.1,0c1.1,0,2,0.8,2,1.9v0
		c0,0.9-0.7,1.7-1.6,1.9c0,0-0.1,0-0.1,0C164.7,36.1,164.1,36.1,163.4,36.1z"/>
	<path class="st4" d="M171.5,34.1V19.2c0-0.9-0.7-1.6-1.6-1.6l0,0c-0.9,0-1.7-0.8-1.5-1.7l0.1-0.7c0.1-0.8,0.8-1.4,1.5-1.4h4.9
		c0.9,0,1.6,0.7,1.6,1.6v18.7c0,0.9-0.7,1.6-1.6,1.6H173C172.2,35.7,171.5,35,171.5,34.1z M171.1,7.7v-1c0-0.9,0.7-1.6,1.6-1.6h2.4
		c0.9,0,1.6,0.7,1.6,1.6v1c0,0.9-0.7,1.6-1.6,1.6h-2.4C171.8,9.2,171.1,8.5,171.1,7.7z"/>
	<path class="st4" d="M188.5,34.1l-6.7-17.1c-0.6-1.6,0.5-3.3,2.2-3.3h0c1,0,1.9,0.6,2.2,1.6l3.3,9.2c0.8,2.1,3.7,2.1,4.5,0l3.3-9.2
		c0.3-0.9,1.2-1.6,2.2-1.6h0c1.7,0,2.8,1.7,2.2,3.3l-6.7,17.1c-0.4,0.9-1.2,1.5-2.2,1.5h-2.2C189.8,35.7,188.9,35.1,188.5,34.1z"/>
	<path class="st4" d="M216.6,36.1c-3.8,0-6.8-0.9-8.9-2.8c-2.1-1.9-3.1-4.7-3.1-8.6c0-3.5,0.9-6.3,2.7-8.3c1.8-2,4.5-3,8.1-3
		c3.3,0,5.8,0.9,7.5,2.6c1.7,1.7,2.5,4,2.5,6.7v2.5c0,0.8-0.7,1.5-1.5,1.5h-12.6c-1,0-1.8,1-1.4,2c0.4,1.1,1,1.9,1.8,2.4
		c1.3,0.8,3.3,1.2,5.9,1.2c1.1,0,2.2-0.1,3.4-0.3c0.4-0.1,0.8-0.2,1.2-0.2c1-0.2,1.9,0.5,1.9,1.5v0.6c0,0.7-0.4,1.2-1.1,1.5
		c-0.7,0.2-1.5,0.4-2.3,0.6C219.4,36,218.1,36.1,216.6,36.1z M211,23.4h8.4c0.8,0,1.5-0.7,1.5-1.5v0c0-1.5-0.4-2.7-1.2-3.5
		c-0.8-0.8-2.2-1.3-4.2-1.3c-2.3,0-3.9,0.5-4.8,1.5c-0.6,0.7-1,1.7-1.2,3C209.4,22.6,210.1,23.4,211,23.4z"/>
	<g>
		<path d="M72.9,57.5l2-9.3c0.1-0.7,0.8-1.2,1.5-1.2h4.1c1.1,0,2.1,0.2,2.9,0.6c0.8,0.4,1.3,1.1,1.6,2s0.3,2.1,0,3.6
			c-0.3,1.4-0.7,2.5-1.3,3.4c-0.5,0.9-1.3,1.6-2.2,2c-0.9,0.4-2,0.6-3.4,0.6h-3.7C73.4,59.3,72.7,58.4,72.9,57.5z M76.5,55.1
			c-0.2,0.9,0.5,1.8,1.5,1.8l0,0c0.8,0,1.4-0.1,1.9-0.3c0.5-0.2,0.9-0.6,1.2-1.1c0.3-0.5,0.6-1.3,0.8-2.3c0.2-1,0.3-1.8,0.3-2.4
			c0-0.6-0.3-0.9-0.6-1.2c-0.4-0.2-1-0.3-1.9-0.3h-0.6c-0.7,0-1.3,0.5-1.5,1.2L76.5,55.1z"/>
		<path d="M88.8,59.5c-1.2,0-2.2-0.4-2.7-1.1c-0.6-0.7-0.7-1.8-0.4-3.3c0.2-1,0.6-1.9,1-2.6c0.5-0.8,1.1-1.4,1.9-1.8
			c0.8-0.4,1.6-0.6,2.6-0.6c0.5,0,0.9,0.1,1.3,0.2c0.3,0.1,0.6,0.3,0.9,0.5l0.1-0.5h1.6c0.8,0,1.3,0.7,1.2,1.4l-1.4,6.7
			c-0.1,0.6-0.6,1-1.2,1H92l0-0.8C91.1,59.2,90,59.5,88.8,59.5z M90.2,57.3c0.5,0,0.9-0.1,1.4-0.3c0.3-0.2,0.5-0.5,0.6-0.8l0.7-3.1
			c-0.3-0.4-0.7-0.6-1.4-0.6c-0.7,0-1.3,0.2-1.8,0.7c-0.4,0.5-0.8,1.2-1,2.1c-0.2,0.8-0.1,1.4,0.1,1.7
			C89.1,57.1,89.5,57.3,90.2,57.3z"/>
		<path d="M98.8,59.3c-0.7,0-1.3-0.7-1.1-1.4l1.1-5.4h-1.3l0.5-1.5c0.2-0.5,0.6-0.8,1.1-0.8h1.9c0.7,0,1.3,0.7,1.1,1.4l-1.4,6.7
			c-0.1,0.5-0.6,0.9-1.1,0.9H98.8z M99.7,47.4L99.7,47.4c0.1-0.5,0.6-0.9,1.1-0.9h1c0.7,0,1.3,0.7,1.1,1.4v0
			c-0.1,0.5-0.6,0.9-1.1,0.9h-1C100.1,48.8,99.5,48.1,99.7,47.4z"/>
		<path d="M105.2,59.5c-0.9,0-1.6-0.2-1.9-0.6c-0.4-0.4-0.5-1.1-0.3-2.1l1.9-9.1c0.1-0.7,0.8-1.2,1.5-1.2h0c1,0,1.7,0.9,1.5,1.8
			l-1.8,8.2c-0.1,0.3,0,0.5,0.1,0.6c0.1,0.1,0.3,0.2,0.5,0.2c0.3,0,0.7,0,0.9-0.1l-0.4,2.1c-0.3,0.1-0.6,0.2-0.9,0.2
			S105.6,59.5,105.2,59.5z"/>
		<path d="M110.8,62.7c-0.3,0-0.6,0-0.9,0c-0.3,0-0.6,0-0.9-0.1c-0.3,0-0.5-0.1-0.7-0.1l0.5-2.3c0.2,0.1,0.6,0.1,1,0.2
			s0.7,0.1,1,0.1c1.2,0,2.1-0.1,2.7-0.4c0.6-0.2,0.9-0.6,1-1.2l0.1-0.4c-0.4,0.3-0.9,0.5-1.5,0.7s-1.2,0.3-1.9,0.3
			c-0.6,0-1.2-0.1-1.6-0.4s-0.8-0.7-1-1.3c-0.2-0.5-0.2-1.2-0.1-1.9l1-4.5c0.1-0.7,0.8-1.2,1.5-1.2l0,0c1,0,1.7,0.9,1.5,1.8
			l-0.8,3.7c-0.1,0.6-0.1,0.9,0,1.2s0.5,0.3,1.1,0.3c0.4,0,0.7-0.1,1.1-0.2c0.4-0.2,0.7-0.3,0.9-0.6l1.1-5c0.1-0.7,0.8-1.2,1.5-1.2
			h0c1,0,1.7,0.9,1.5,1.8l-1.4,6.4c-0.3,1.3-0.9,2.4-2,3.1C114.5,62.3,113,62.7,110.8,62.7z"/>
		<path d="M125.9,58.3L125.7,48c0-0.6,0.4-1,1-1h1c0.5,0,1,0.4,1,1l0,2.4c0,1,1.4,1.4,1.9,0.4l1-1.9c0-0.1,0.1-0.2,0.1-0.2l0.2-0.8
			c0.1-0.5,0.5-0.8,1-0.8h0.8c0.5,0,0.9,0.4,1,0.9l0.2,2.6c0.1,1,1.5,1.3,1.9,0.3l1.4-3.2c0.2-0.4,0.5-0.6,0.9-0.6h0.9
			c0.7,0,1.2,0.7,0.9,1.4l-4.6,10.3c-0.2,0.4-0.5,0.6-0.9,0.6H134c-0.5,0-0.9-0.4-1-0.9l-0.2-2.8c-0.1-1-1.4-1.3-1.9-0.4l-1.9,3.5
			c-0.2,0.3-0.5,0.5-0.9,0.5h-1.4C126.3,59.3,125.9,58.9,125.9,58.3z"/>
		<path d="M143.5,59.5c-1.6,0-2.8-0.4-3.5-1.2c-0.7-0.8-0.9-2-0.6-3.5c0.3-1.5,1-2.7,1.9-3.5c1-0.8,2.3-1.2,4.2-1.2
			c1.7,0,2.8,0.4,3.5,1.2c0.7,0.8,0.9,2,0.6,3.5c-0.3,1.5-1,2.7-1.9,3.5C146.8,59.1,145.4,59.5,143.5,59.5z M144,57.1
			c0.7,0,1.3-0.2,1.6-0.5s0.7-0.9,0.8-1.8c0.2-0.8,0.2-1.4-0.1-1.8c-0.2-0.4-0.7-0.5-1.4-0.5c-0.7,0-1.2,0.2-1.6,0.5
			c-0.4,0.4-0.7,0.9-0.8,1.8c-0.2,0.8-0.2,1.4,0.1,1.8C142.8,56.9,143.3,57.1,144,57.1z"/>
		<path d="M150.6,57.9l1.4-6.7c0.1-0.5,0.6-0.9,1.1-0.9h2l-0.1,0.8c0.4-0.2,1-0.5,1.6-0.7c0,0,0,0,0,0c0.8-0.3,1.6,0.5,1.5,1.4
			l-0.1,0.6c-0.3,0-0.7,0.1-1.1,0.2c-0.4,0.1-0.8,0.2-1.2,0.3c-0.4,0.1-0.7,0.2-1,0.4l-1.1,5.2c-0.1,0.5-0.6,0.9-1.1,0.9h-0.7
			C151,59.3,150.4,58.6,150.6,57.9z"/>
		<path d="M157.9,57.9l2.2-10.6c0.1-0.5,0.6-0.9,1.1-0.9h0.8c0.7,0,1.3,0.7,1.1,1.4l-0.5,2.2c-0.2,1,1,1.8,1.8,1.1l0.8-0.6
			c0.2-0.2,0.5-0.3,0.7-0.3l0,0c1.1,0,1.5,1.3,0.7,2l-1.4,1.2c-0.4,0.3-0.5,0.9-0.3,1.4l1.5,2.8c0.4,0.8-0.2,1.7-1,1.7h-0.7
			c-0.4,0-0.8-0.3-1-0.6l-1.4-3l-0.8,0.6c-0.2,0.2-0.3,0.4-0.4,0.6l-0.3,1.5c-0.1,0.5-0.6,0.9-1.1,0.9h-0.8
			C158.3,59.3,157.8,58.6,157.9,57.9z"/>
		<path d="M176.7,59.5c-0.8,0-1.6-0.1-2.2-0.2c-0.2,0-0.4-0.1-0.5-0.1c-0.7-0.2-1.1-0.9-0.9-1.5l0,0c0.2-0.7,0.9-1.2,1.6-1
			c0.1,0,0.3,0.1,0.4,0.1c0.6,0.2,1.3,0.2,1.9,0.2c0.8,0,1.3-0.1,1.8-0.2c0.4-0.1,0.7-0.4,0.8-0.9c0.1-0.3,0-0.6-0.1-0.8
			c-0.1-0.2-0.4-0.4-0.8-0.5c-0.4-0.1-0.9-0.3-1.6-0.5c-1.2-0.4-2-0.8-2.4-1.4c-0.4-0.5-0.5-1.3-0.3-2.3c0.3-1.2,0.9-2.1,1.8-2.7
			c1-0.6,2.3-0.9,3.9-0.9c0.7,0,1.4,0.1,2,0.2c0.1,0,0.2,0,0.3,0c0.7,0.1,1.2,0.8,1,1.6l0,0c-0.2,0.7-0.9,1.2-1.6,1
			c-0.1,0-0.2,0-0.3-0.1c-0.5-0.1-1.1-0.2-1.6-0.2c-0.7,0-1.3,0.1-1.7,0.2c-0.5,0.1-0.7,0.4-0.8,0.9c-0.1,0.3,0,0.5,0.1,0.6
			c0.1,0.2,0.3,0.3,0.7,0.4c0.3,0.1,0.8,0.3,1.4,0.5c1,0.3,1.7,0.6,2.1,1c0.5,0.4,0.7,0.8,0.8,1.3c0.1,0.5,0.1,1,0,1.7
			c-0.2,1.1-0.8,2-1.8,2.6C179.8,59.2,178.5,59.5,176.7,59.5z"/>
		<path d="M183,61.6l2.2-10.2c0.1-0.7,0.8-1.2,1.5-1.2h1.5V51c0.4-0.3,0.9-0.5,1.4-0.7c0.5-0.2,1-0.3,1.7-0.3c1.3,0,2.3,0.4,2.8,1.2
			c0.5,0.8,0.7,2,0.4,3.5c-0.3,1.6-0.9,2.8-1.8,3.6s-2.1,1.1-3.5,1.1c-0.4,0-0.7,0-1-0.1c-0.8-0.1-1.5,0.4-1.7,1.2l-0.3,1.6
			c-0.1,0.7-0.8,1.2-1.5,1.2l0,0C183.5,63.4,182.8,62.5,183,61.6z M188.6,57.2c0.6,0,1.2-0.2,1.6-0.6c0.4-0.4,0.7-1,0.9-1.9
			c0.2-0.9,0.2-1.5-0.1-1.9c-0.2-0.4-0.7-0.6-1.4-0.6c-0.3,0-0.7,0.1-1,0.2c-0.3,0.1-0.6,0.3-0.9,0.5l-0.8,3.7
			c0.2,0.2,0.4,0.3,0.6,0.4C188,57.2,188.3,57.2,188.6,57.2z"/>
		<path d="M198.5,59.5c-1.2,0-2.2-0.4-2.7-1.1c-0.6-0.7-0.7-1.8-0.4-3.3c0.2-1,0.6-1.9,1-2.6c0.5-0.8,1.1-1.4,1.9-1.8
			c0.8-0.4,1.6-0.6,2.6-0.6c0.5,0,0.9,0.1,1.3,0.2c0.3,0.1,0.6,0.3,0.9,0.5l0.1-0.5h0.9c1.1,0,1.9,1,1.7,2.1l-1.2,5.6
			c-0.2,0.8-0.9,1.4-1.7,1.4h-1.3l0-0.8C200.8,59.2,199.7,59.5,198.5,59.5z M200,57.3c0.3,0,0.6-0.1,0.9-0.2c0.6-0.2,1-0.7,1.1-1.3
			l0.6-2.9c-0.3-0.4-0.7-0.6-1.4-0.6c-0.7,0-1.3,0.2-1.8,0.7c-0.4,0.5-0.8,1.2-1,2.1c-0.2,0.8-0.1,1.4,0.1,1.7
			C198.8,57.1,199.3,57.3,200,57.3z"/>
		<path d="M211,59.5c-1,0-1.8-0.2-2.5-0.5s-1.2-0.9-1.5-1.6c-0.3-0.7-0.3-1.6-0.1-2.6c0.3-1.6,1-2.8,2.1-3.5c1-0.8,2.4-1.2,4.1-1.2
			c0.7,0,1.2,0,1.7,0.1c0.2,0,0.3,0.1,0.5,0.1c0.5,0.2,0.8,0.7,0.7,1.2l0,0.2c-0.1,0.6-0.7,0.9-1.2,0.8c-0.4-0.1-0.9-0.1-1.4-0.1
			c-0.9,0-1.6,0.2-2.1,0.5s-0.9,1-1.1,1.9c-0.2,0.9-0.1,1.5,0.2,1.9c0.3,0.4,1,0.6,2,0.6c0.4,0,0.8,0,1.1-0.1
			c0.7-0.1,1.3,0.5,1.2,1.2v0c-0.1,0.4-0.4,0.7-0.7,0.8c-0.3,0.1-0.6,0.2-1,0.2C212.3,59.4,211.7,59.5,211,59.5z"/>
		<path d="M220.7,59.5c-1,0-1.8-0.2-2.5-0.5s-1.2-0.9-1.6-1.6c-0.3-0.7-0.4-1.6-0.2-2.6c0.3-1.4,0.9-2.6,1.8-3.4
			c0.9-0.9,2.2-1.3,3.9-1.3c0.9,0,1.7,0.2,2.3,0.5c0.6,0.4,1,0.8,1.3,1.5c0.2,0.6,0.3,1.3,0.1,2.1l0,0c-0.2,0.9-1,1.6-2,1.6h-4.8
			c0,0.6,0.2,1,0.6,1.3s1.1,0.4,2.1,0.4c0.5,0,1,0,1.5-0.1c0.5-0.1,1-0.2,1.4-0.3l-0.2,0.8c-0.2,0.8-0.8,1.4-1.6,1.6
			c-0.1,0-0.2,0-0.3,0C222,59.4,221.4,59.5,220.7,59.5z M219.5,54h3.7l0.1-0.4c0.1-0.4,0-0.8-0.2-1.1c-0.2-0.3-0.6-0.4-1.3-0.4
			c-0.7,0-1.3,0.1-1.6,0.4C219.8,52.9,219.6,53.4,219.5,54z"/>
		<path d="M226.2,57.9L226.2,57.9c0.1-0.5,0.6-0.9,1.1-0.9h0.2c0.7,0,1.2,0.7,1.1,1.4v0c-0.1,0.5-0.6,0.9-1.1,0.9h-0.2
			C226.6,59.3,226.1,58.6,226.2,57.9z"/>
	</g>
</g>
</svg>
