<?xml version="1.0" encoding="utf-8"?>
<!-- Generator: Adobe Illustrator 26.3.1, SVG Export Plug-In . SVG Version: 6.00 Build 0)  -->
<svg version="1.1" id="Layer_1" xmlns="http://www.w3.org/2000/svg" xmlns:xlink="http://www.w3.org/1999/xlink" x="0px" y="0px"
	 viewBox="0 0 421.1 104.49" style="enable-background:new 0 0 421.1 104.49;" xml:space="preserve">
<style type="text/css">
	.st0{fill:#6950A1;}
	.st1{fill:#808184;}
</style>
<g>
	<g>
		<g>
			<path class="st0" d="M16.63,94.48c0,2-0.71,3.71-2.14,5.13c-1.43,1.43-3.14,2.14-5.14,2.14H2.08V48.49
				c0-9.98,2.92-16.79,8.77-20.43c5.85-3.64,12.2-5.46,19.04-5.46c3.56,0,7.17,0.68,10.8,2.03c3.64,1.36,6.52,3.32,8.67,5.88
				c4.27,5.57,6.41,12.7,6.41,21.39c0,8.98-2.14,16.26-6.41,21.82c-4.29,5.42-9.77,8.13-16.48,8.13c-3.56,0-6.71-0.64-9.41-1.93
				c-2.86-1.42-5.14-3.64-6.85-6.63V94.48z M41.02,52.55c0-5.56-1.07-9.84-3.21-12.83c-2.14-3-5.2-4.49-9.19-4.49
				c-3.85,0-6.85,1.5-8.98,4.49c-2,2.71-3,6.99-3,12.83c0,5.42,1.07,9.49,3.21,12.19c2.14,3,5.21,4.49,9.2,4.49
				c3.71,0,6.64-1.5,8.77-4.49C39.95,61.75,41.02,57.69,41.02,52.55z"/>
			<path class="st0" d="M61.18,7.2h7.7c2,0,3.71,0.68,5.13,2.03c1.43,1.35,2.14,3.03,2.14,5.03v66.53H61.18V7.2z"/>
			<path class="st0" d="M119.47,78.44c-3,1.57-6.17,2.53-9.52,2.89c-3.35,0.35-6.31,0.53-8.87,0.53c-5.14,0-9.63-1.39-13.48-4.17
				c-3.85-2.78-5.78-7.38-5.78-13.8c0-5.99,1.74-10.27,5.24-12.83c3.5-2.57,7.95-4.28,13.37-5.14c0.71,0,1.56-0.11,2.57-0.32
				c1-0.22,2.14-0.39,3.42-0.54c6.27-0.85,9.41-2.71,9.41-5.56c0-2.14-1.11-3.53-3.31-4.17c-2.21-0.64-4.24-0.96-6.1-0.96
				c-2,0-3.78,0.29-5.34,0.86c-1.57,0.57-2.71,1.64-3.43,3.21H83.31c0.56-4.42,2.56-8.05,5.99-10.91c3.85-3.28,9.34-4.92,16.47-4.92
				c7.98,0,13.97,1.36,17.97,4.07c4.13,2.85,6.2,6.84,6.2,11.98v19.47c0,5.7-1.04,10.16-3.1,13.37
				C124.78,74.7,122.32,77.01,119.47,78.44z M116.04,52.13c-2,1-4.78,1.92-8.34,2.78l-4.92,1.07c-2.57,0.72-4.42,1.64-5.56,2.78
				c-1,1.58-1.5,3.14-1.5,4.7c0,2.14,0.64,3.85,1.93,5.14c1.28,1.14,3.14,1.71,5.56,1.71c3.99,0,7.13-1.14,9.41-3.42
				c2.28-2.28,3.42-5.42,3.42-9.41V52.13z"/>
			<path class="st0" d="M141.97,100.9V89.14h4.07c2.85,0,5.1-0.68,6.74-2.03c1.64-1.36,1.96-3.53,0.97-6.53l-19.9-56.69h16.47
				l11.55,40.22l10.05-35.08c0.85-3.42,3.14-5.14,6.85-5.14h10.27l-21.82,64.82c-1.71,4.71-3.85,8.05-6.41,10.05
				c-2.57,1.71-6.78,2.57-12.63,2.57c-0.43,0-0.93,0-1.5,0c-0.57,0-1.07,0-1.5,0c-0.42-0.15-0.96-0.25-1.6-0.32
				C142.94,100.94,142.4,100.9,141.97,100.9z"/>
			<path class="st1" d="M243.08,2.59v78.2h-2.19V65.02h-0.22c-1.46,5.04-4.15,9.13-8.04,12.27c-3.91,3.14-8.75,4.71-14.52,4.71
				c-3.72,0-7.06-0.73-10.02-2.19c-2.96-1.45-5.48-3.48-7.56-6.07c-2.08-2.59-3.67-5.67-4.77-9.25c-1.09-3.58-1.64-7.49-1.64-11.72
				c0-3.94,0.53-7.7,1.59-11.28c1.06-3.58,2.59-6.72,4.6-9.42c2.01-2.7,4.5-4.86,7.5-6.46c2.99-1.61,6.42-2.41,10.29-2.41
				c5.99,0,10.92,1.57,14.79,4.71c3.87,3.14,6.46,7.27,7.78,12.38h0.22V2.59H243.08z M234.64,32.44c-4.16-4.71-9.68-7.06-16.54-7.06
				c-3.79,0-7.08,0.82-9.85,2.47c-2.78,1.64-5.04,3.76-6.79,6.35c-1.75,2.59-3.05,5.51-3.89,8.76c-0.84,3.25-1.26,6.52-1.26,9.8
				c0,3.58,0.46,7.01,1.38,10.29c0.91,3.29,2.26,6.19,4.05,8.71c1.79,2.52,4.05,4.51,6.79,5.97c2.74,1.46,5.93,2.19,9.58,2.19
				s6.89-0.73,9.7-2.19c2.81-1.46,5.18-3.43,7.12-5.92c1.94-2.48,3.41-5.37,4.43-8.65c1.02-3.28,1.53-6.76,1.53-10.41
				C240.89,43.92,238.81,37.14,234.64,32.44z"/>
			<path class="st1" d="M255.34,13.65V2.59h2.19v11.06H255.34z M255.34,80.79v-56.3h2.19v56.3H255.34z"/>
			<path class="st1" d="M311.64,61.96c-0.58,2.48-1.63,4.71-3.12,6.68c-1.5,1.97-3.25,3.63-5.26,4.98c-2,1.35-4.2,2.37-6.57,3.07
				c-2.38,0.7-4.76,1.04-7.18,1.04c-3.94,0-7.38-0.73-10.3-2.19c-2.92-1.46-5.35-3.41-7.28-5.86c-1.93-2.45-3.39-5.31-4.38-8.59
				c-0.99-3.29-1.48-6.72-1.48-10.3c0-3.8,0.51-7.36,1.54-10.68c1.02-3.32,2.55-6.24,4.6-8.76c2.04-2.52,4.58-4.51,7.61-5.97
				c3.03-1.46,6.52-2.19,10.46-2.19c2.7,0,5.22,0.42,7.56,1.26c2.34,0.84,4.44,1.99,6.3,3.45c1.87,1.46,3.43,3.18,4.71,5.15
				c1.28,1.97,2.21,4.13,2.8,6.46h0.23V24.49h2.19v54.44c0,7.74-2.05,13.42-6.14,17.04c-4.09,3.61-9.85,5.42-17.3,5.42
				c-2.85,0-5.55-0.33-8.11-0.98c-2.56-0.66-4.82-1.7-6.79-3.12c-1.97-1.42-3.54-3.25-4.71-5.47c-1.17-2.23-1.79-4.95-1.86-8.17
				h2.19c0.08,2.78,0.64,5.15,1.7,7.12c1.06,1.97,2.47,3.57,4.22,4.82c1.76,1.23,3.78,2.15,6.08,2.73c2.3,0.58,4.69,0.88,7.18,0.88
				c6.86,0,12.14-1.63,15.82-4.87c3.68-3.25,5.54-8.38,5.54-15.39V61.96H311.64z M310.38,41.36c-0.91-3.07-2.26-5.78-4.05-8.16
				c-1.79-2.37-4.04-4.27-6.74-5.7c-2.7-1.43-5.8-2.14-9.31-2.14c-3.65,0-6.85,0.68-9.58,2.02c-2.74,1.35-5.04,3.2-6.9,5.53
				c-1.87,2.34-3.25,5.04-4.17,8.11c-0.91,3.07-1.37,6.31-1.37,9.75c0,3.5,0.46,6.75,1.37,9.75c0.91,3,2.26,5.6,4.05,7.83
				c1.79,2.22,4,3.98,6.63,5.26c2.63,1.28,5.66,1.91,9.09,1.91c3.65,0,6.86-0.66,9.64-1.97c2.78-1.31,5.09-3.09,6.96-5.31
				c1.87-2.22,3.29-4.85,4.27-7.88c0.99-3.03,1.48-6.22,1.48-9.59C311.75,47.57,311.3,44.43,310.38,41.36z"/>
			<path class="st1" d="M325.34,13.65V2.59h2.19v11.06H325.34z M325.34,80.79v-56.3h2.19v56.3H325.34z"/>
			<path class="st1" d="M345.05,69.84c0,2.12,0.23,3.76,0.71,4.93c0.47,1.17,1.08,2.05,1.81,2.63c0.72,0.58,1.53,0.93,2.41,1.04
				c0.87,0.11,1.75,0.17,2.63,0.17c1.09,0,2.08-0.02,2.96-0.06c0.87-0.03,1.5-0.13,1.86-0.27v2.19c-0.66,0.08-1.3,0.15-1.92,0.22
				c-0.62,0.07-1.77,0.11-3.45,0.11c-2.56,0-4.73-0.75-6.52-2.25c-1.79-1.49-2.68-4.25-2.68-8.26v-43.6h-10.3v-2.19h10.3V6.75h2.19
				v17.74h12.7v2.19h-12.7V69.84z"/>
			<path class="st1" d="M366.4,34.52c0.95-2.3,2.32-4.29,4.11-5.97c1.79-1.68,3.98-2.99,6.58-3.94c2.59-0.95,5.63-1.42,9.14-1.42
				c2.48,0,4.84,0.26,7.06,0.77c2.23,0.51,4.18,1.41,5.86,2.68c1.68,1.28,3.03,2.94,4.05,4.98c1.02,2.05,1.57,4.6,1.64,7.67V75.1
				c0,1.1,0.22,1.9,0.66,2.41c0.44,0.51,1.02,0.85,1.75,1.04c0.73,0.18,1.52,0.26,2.36,0.22c0.83-0.04,1.63-0.09,2.35-0.16v2.19
				h-3.29c-1.61,0-3.01-0.38-4.21-1.15c-1.21-0.77-1.8-2.21-1.8-4.32v-7.34h-0.22c-0.59,1.82-1.51,3.58-2.79,5.26
				c-1.28,1.68-2.89,3.18-4.82,4.49c-1.94,1.31-4.14,2.35-6.62,3.12c-2.49,0.76-5.19,1.15-8.11,1.15c-5.69,0-10.26-1.26-13.69-3.78
				c-3.43-2.52-5.15-6.3-5.15-11.34c0-3.5,0.56-6.31,1.69-8.43c1.13-2.12,2.61-3.78,4.44-4.98c1.83-1.21,3.91-2.05,6.25-2.52
				c2.34-0.47,4.67-0.78,7.01-0.93c3.87-0.22,7.19-0.42,9.96-0.6c2.78-0.18,5.06-0.55,6.85-1.1c1.79-0.54,3.11-1.38,3.94-2.51
				c0.84-1.13,1.27-2.76,1.27-4.88c0-1.68-0.15-3.43-0.44-5.26c-0.29-1.83-1.01-3.5-2.14-5.04c-1.13-1.53-2.8-2.79-4.98-3.78
				c-2.19-0.99-5.15-1.48-8.87-1.48c-5.92,0-10.52,1.44-13.8,4.32c-3.29,2.89-5.11,6.95-5.48,12.22h-2.19
				C364.91,39.28,365.46,36.82,366.4,34.52z M402.44,47.72c-0.73,1.02-1.86,1.8-3.4,2.35c-1.53,0.55-3.28,0.97-5.26,1.26
				c-1.97,0.3-4.11,0.48-6.41,0.55c-2.3,0.08-4.55,0.18-6.73,0.33c-2.19,0.15-4.33,0.42-6.41,0.82c-2.09,0.4-3.93,1.13-5.53,2.19
				c-1.61,1.06-2.89,2.52-3.84,4.38c-0.95,1.86-1.42,4.29-1.42,7.28c0,1.61,0.27,3.2,0.82,4.77c0.55,1.57,1.48,2.96,2.8,4.16
				c1.31,1.2,3.01,2.19,5.09,2.96c2.09,0.77,4.66,1.15,7.73,1.15c3.65,0,6.9-0.61,9.75-1.86c2.85-1.24,5.24-2.86,7.17-4.87
				c1.93-2.01,3.4-4.33,4.38-6.96c0.99-2.63,1.48-5.33,1.48-8.11v-10.4H402.44z"/>
			<path class="st1" d="M419.2,2.59v78.2H417V2.59H419.2z"/>
		</g>
	</g>
</g>
</svg>
